<svg version="1.1" id="Layer_1" xmlns="http://www.w3.org/2000/svg" xmlns:xlink="http://www.w3.org/1999/xlink" x="0px" y="0px"
	 width="100%" viewBox="0 0 512 512" enable-background="new 0 0 512 512" xml:space="preserve">

<circle fill="#6DA544" opacity="1.000000" stroke="none" cx="255" cy="255" r="255"/>
<path fill="#FEDA44" opacity="1.000000" stroke="none" 
	d="
M387.615051,197.389603 
	C414.547302,217.240707 441.194000,236.874512 468.464874,256.968262 
	C461.139709,262.402130 454.385803,267.440582 447.602783,272.439453 
	C385.788666,317.994537 323.943726,363.507874 262.213531,409.176331 
	C258.359741,412.027344 255.850845,412.158447 251.897705,409.232849 
	C184.952011,359.687805 117.879784,310.313751 50.839207,260.896942 
	C49.277699,259.745911 47.758717,258.537201 45.718987,256.970703 
	C51.552620,252.625824 56.840256,248.651794 62.164555,244.727509 
	C125.319626,198.179291 188.520645,151.693100 251.552002,104.977997 
	C255.947067,101.720627 258.596191,102.128349 262.696869,105.173073 
	C304.155029,135.955353 345.763306,166.535461 387.615051,197.389603 
M175.053696,222.153488 
	C170.345840,233.641388 167.550659,245.496704 168.032623,258.898926 
	C168.608902,318.442383 228.883438,360.810394 285.455902,341.341705 
	C303.883453,335.000092 319.068298,324.217560 330.293945,307.230560 
	C337.651306,297.172699 341.993408,285.840088 344.703217,272.776855 
	C344.696869,262.184479 346.195953,251.331757 344.417297,241.045853 
	C337.591309,201.571609 305.994202,172.906601 265.692780,168.265915 
	C228.273178,163.957062 191.169083,185.853378 175.053696,222.153488 
z"/>
<path fill="#0153B4" opacity="1.000000" stroke="none" 
	d="
M329.759186,307.621613 
	C319.068298,324.217560 303.883453,335.000092 285.455902,341.341705 
	C228.883438,360.810394 168.608902,318.442383 168.473877,258.407867 
	C201.953796,248.177200 234.587540,249.367371 266.768646,261.664062 
	C291.914642,271.272583 312.551361,287.108948 329.759186,307.621613 
z"/>
<path fill="#0253B4" opacity="1.000000" stroke="none" 
	d="
M175.300156,221.609451 
	C191.169083,185.853378 228.273178,163.957062 265.692780,168.265915 
	C305.994202,172.906601 337.591309,201.571609 344.417297,241.045853 
	C346.195953,251.331757 344.696869,262.184479 344.342346,273.012238 
	C343.101990,272.502869 342.174713,271.807251 341.349854,271.006226 
	C312.062653,242.564529 277.297272,225.349121 236.802292,219.680130 
	C216.164154,216.790924 195.710693,218.102127 175.300156,221.609451 
z"/>
<path fill="#EEEFEF" opacity="1.000000" stroke="none" 
	d="
M175.176926,221.881470 
	C195.710693,218.102127 216.164154,216.790924 236.802292,219.680130 
	C277.297272,225.349121 312.062653,242.564529 341.349854,271.006226 
	C342.174713,271.807251 343.101990,272.502869 344.222168,273.481689 
	C341.993408,285.840088 337.651306,297.172699 330.026550,307.426086 
	C312.551361,287.108948 291.914642,271.272583 266.768646,261.664062 
	C234.587540,249.367371 201.953796,248.177200 168.540710,257.962036 
	C167.550659,245.496704 170.345840,233.641388 175.176926,221.881470 
z"/>
</svg>